<svg id="visual" viewBox="0 0 900 600" width="900" height="600" xmlns="http://www.w3.org/2000/svg" xmlns:xlink="http://www.w3.org/1999/xlink" version="1.1"><path d="M0 436L129 444L257 394L386 370L514 390L643 390L771 424L900 384L900 601L771 601L643 601L514 601L386 601L257 601L129 601L0 601Z" fill="#af0b48"></path><path d="M0 421L129 471L257 438L386 399L514 476L643 466L771 452L900 464L900 601L771 601L643 601L514 601L386 601L257 601L129 601L0 601Z" fill="#e61430"></path><path d="M0 491L129 447L257 468L386 492L514 439L643 450L771 485L900 457L900 601L771 601L643 601L514 601L386 601L257 601L129 601L0 601Z" fill="#ff340c"></path><path d="M0 485L129 486L257 512L386 499L514 517L643 525L771 486L900 522L900 601L771 601L643 601L514 601L386 601L257 601L129 601L0 601Z" fill="#e61430"></path><path d="M0 563L129 530L257 544L386 554L514 546L643 527L771 537L900 573L900 601L771 601L643 601L514 601L386 601L257 601L129 601L0 601Z" fill="#af0b48"></path></svg>