<svg id="visual" viewBox="0 0 900 600" width="900" height="600" xmlns="http://www.w3.org/2000/svg" xmlns:xlink="http://www.w3.org/1999/xlink" version="1.1"><path d="M0 424L129 419L257 365L386 402L514 412L643 383L771 376L900 417L900 601L771 601L643 601L514 601L386 601L257 601L129 601L0 601Z" fill="#9a110a"></path><path d="M0 460L129 448L257 419L386 479L514 427L643 457L771 479L900 465L900 601L771 601L643 601L514 601L386 601L257 601L129 601L0 601Z" fill="#d63319"></path><path d="M0 458L129 509L257 437L386 460L514 442L643 451L771 472L900 462L900 601L771 601L643 601L514 601L386 601L257 601L129 601L0 601Z" fill="#fc4722"></path><path d="M0 532L129 487L257 517L386 487L514 507L643 496L771 532L900 492L900 601L771 601L643 601L514 601L386 601L257 601L129 601L0 601Z" fill="#d63319"></path><path d="M0 542L129 545L257 571L386 556L514 552L643 564L771 526L900 545L900 601L771 601L643 601L514 601L386 601L257 601L129 601L0 601Z" fill="#9a110a"></path></svg>
